<svg width="444" height="162" viewBox="0 0 444 162" fill="none" xmlns="http://www.w3.org/2000/svg"><rect width="359" height="42" fill="#26297D"/><rect y="60" width="138" height="42" fill="#26297D"/><rect y="120" width="305" height="42" fill="#26297D"/><path d="M372.952 28.192C372.397 28.192 371.896 28.128 371.448 28C371.011 27.872 370.621 27.7013 370.28 27.488C369.939 27.2747 369.635 27.0347 369.368 26.768L370.424 25.28C370.733 25.5573 371.069 25.7973 371.432 26C371.795 26.192 372.189 26.288 372.616 26.288C372.957 26.288 373.256 26.2293 373.512 26.112C373.768 25.984 373.965 25.8027 374.104 25.568C374.253 25.3333 374.328 25.0453 374.328 24.704C374.328 24.192 374.179 23.8027 373.88 23.536C373.581 23.2693 373.197 23.136 372.728 23.136C372.44 23.136 372.195 23.1733 371.992 23.248C371.789 23.3227 371.533 23.456 371.224 23.648L370.168 22.976L370.456 17.84H376.216V19.824H372.488L372.312 21.728C372.515 21.6427 372.701 21.584 372.872 21.552C373.043 21.5093 373.235 21.488 373.448 21.488C374.035 21.488 374.573 21.6 375.064 21.824C375.555 22.048 375.944 22.3947 376.232 22.864C376.531 23.3333 376.68 23.9253 376.68 24.64C376.68 25.3973 376.504 26.0427 376.152 26.576C375.811 27.0987 375.357 27.4987 374.792 27.776C374.227 28.0533 373.613 28.192 372.952 28.192ZM381.341 28.192C380.797 28.192 380.301 28.128 379.853 28C379.416 27.8827 379.026 27.7173 378.685 27.504C378.344 27.2907 378.05 27.04 377.805 26.752L378.893 25.264C379.202 25.5627 379.544 25.808 379.917 26C380.29 26.192 380.69 26.288 381.117 26.288C381.608 26.288 382.002 26.1867 382.301 25.984C382.61 25.7707 382.765 25.472 382.765 25.088C382.765 24.7893 382.69 24.5333 382.541 24.32C382.392 24.096 382.12 23.9253 381.725 23.808C381.341 23.6907 380.776 23.632 380.029 23.632V21.968C380.637 21.968 381.117 21.9093 381.469 21.792C381.821 21.6747 382.066 21.5147 382.205 21.312C382.354 21.1093 382.429 20.8747 382.429 20.608C382.429 20.2453 382.317 19.968 382.093 19.776C381.88 19.584 381.576 19.488 381.181 19.488C380.818 19.488 380.488 19.568 380.189 19.728C379.901 19.8773 379.597 20.096 379.277 20.384L378.093 18.944C378.562 18.5387 379.058 18.224 379.581 18C380.104 17.7653 380.674 17.648 381.293 17.648C381.986 17.648 382.594 17.76 383.117 17.984C383.65 18.1973 384.061 18.512 384.349 18.928C384.648 19.3333 384.797 19.8347 384.797 20.432C384.797 20.9547 384.648 21.4027 384.349 21.776C384.061 22.1493 383.645 22.4533 383.101 22.688V22.752C383.485 22.8693 383.832 23.04 384.141 23.264C384.45 23.4773 384.69 23.7493 384.861 24.08C385.032 24.4107 385.117 24.7947 385.117 25.232C385.117 25.8613 384.941 26.4 384.589 26.848C384.248 27.2853 383.789 27.6213 383.213 27.856C382.648 28.08 382.024 28.192 381.341 28.192ZM388.306 28.192C387.901 28.192 387.56 28.048 387.282 27.76C387.016 27.472 386.882 27.1253 386.882 26.72C386.882 26.2933 387.016 25.9413 387.282 25.664C387.56 25.376 387.901 25.232 388.306 25.232C388.722 25.232 389.064 25.376 389.33 25.664C389.597 25.9413 389.73 26.2933 389.73 26.72C389.73 27.1253 389.597 27.472 389.33 27.76C389.064 28.048 388.722 28.192 388.306 28.192ZM395.199 28.192C394.708 28.192 394.234 28.096 393.775 27.904C393.316 27.712 392.906 27.4133 392.543 27.008C392.18 26.6027 391.892 26.0853 391.679 25.456C391.466 24.816 391.359 24.048 391.359 23.152C391.359 22.2027 391.471 21.3813 391.695 20.688C391.919 19.9947 392.223 19.424 392.607 18.976C392.991 18.528 393.428 18.1973 393.919 17.984C394.41 17.76 394.927 17.648 395.471 17.648C396.143 17.648 396.724 17.7707 397.215 18.016C397.706 18.2507 398.111 18.5333 398.431 18.864L397.199 20.272C397.018 20.08 396.783 19.9147 396.495 19.776C396.207 19.6267 395.914 19.552 395.615 19.552C395.231 19.552 394.874 19.664 394.543 19.888C394.223 20.112 393.967 20.4907 393.775 21.024C393.594 21.5467 393.503 22.256 393.503 23.152C393.503 23.9947 393.578 24.656 393.727 25.136C393.887 25.6053 394.095 25.9413 394.351 26.144C394.607 26.336 394.874 26.432 395.151 26.432C395.386 26.432 395.599 26.3733 395.791 26.256C395.983 26.1387 396.138 25.9627 396.255 25.728C396.372 25.4827 396.431 25.168 396.431 24.784C396.431 24.4213 396.372 24.1333 396.255 23.92C396.138 23.7067 395.978 23.552 395.775 23.456C395.583 23.36 395.359 23.312 395.103 23.312C394.836 23.312 394.559 23.392 394.271 23.552C393.994 23.712 393.743 23.9947 393.519 24.4L393.407 22.864C393.674 22.4693 394.015 22.1707 394.431 21.968C394.847 21.7547 395.22 21.648 395.551 21.648C396.127 21.648 396.644 21.76 397.103 21.984C397.562 22.208 397.919 22.5547 398.175 23.024C398.442 23.4827 398.575 24.0693 398.575 24.784C398.575 25.488 398.42 26.096 398.111 26.608C397.812 27.12 397.407 27.5147 396.895 27.792C396.383 28.0587 395.818 28.192 395.199 28.192ZM403.591 28V17.568H405.943V26.016H410.071V28H403.591ZM413.681 28.192C413.201 28.192 412.779 28.0853 412.417 27.872C412.065 27.6587 411.793 27.3707 411.601 27.008C411.409 26.6453 411.313 26.24 411.313 25.792C411.313 24.9387 411.665 24.2827 412.369 23.824C413.073 23.3547 414.209 23.04 415.777 22.88C415.766 22.6453 415.713 22.448 415.617 22.288C415.531 22.1173 415.398 21.9893 415.217 21.904C415.035 21.808 414.806 21.76 414.529 21.76C414.198 21.76 413.862 21.8187 413.521 21.936C413.179 22.0533 412.811 22.224 412.417 22.448L411.585 20.912C411.926 20.6987 412.278 20.5173 412.641 20.368C413.003 20.208 413.377 20.0853 413.761 20C414.155 19.9147 414.561 19.872 414.977 19.872C415.659 19.872 416.23 20.0053 416.689 20.272C417.158 20.528 417.515 20.9227 417.761 21.456C418.006 21.9787 418.129 22.6507 418.129 23.472V28H416.209L416.049 27.184H415.985C415.643 27.4827 415.286 27.728 414.913 27.92C414.539 28.1013 414.129 28.192 413.681 28.192ZM414.465 26.352C414.731 26.352 414.966 26.2933 415.169 26.176C415.371 26.0587 415.574 25.8987 415.777 25.696V24.352C415.222 24.4267 414.779 24.5227 414.449 24.64C414.129 24.7573 413.899 24.9013 413.761 25.072C413.633 25.232 413.569 25.4133 413.569 25.616C413.569 25.8613 413.649 26.048 413.809 26.176C413.979 26.2933 414.198 26.352 414.465 26.352ZM420.118 28V16.784H422.438V23.184H422.502L424.966 20.064H427.542L424.79 23.36L427.75 28H425.206L423.414 24.912L422.438 26.016V28H420.118ZM428.884 28V16.784H431.236V19.536L431.124 20.96C431.422 20.6933 431.769 20.448 432.164 20.224C432.569 19.9893 433.038 19.872 433.572 19.872C434.446 19.872 435.076 20.16 435.46 20.736C435.844 21.3013 436.036 22.08 436.036 23.072V28H433.684V23.376C433.684 22.8 433.604 22.4053 433.444 22.192C433.294 21.9787 433.049 21.872 432.708 21.872C432.409 21.872 432.153 21.9413 431.94 22.08C431.726 22.208 431.492 22.3947 431.236 22.64V28H428.884ZM440.36 28.192C439.838 28.192 439.299 28.0907 438.744 27.888C438.19 27.6853 437.715 27.392 437.32 27.008L438.312 25.68C438.675 25.968 439.032 26.1707 439.384 26.288C439.747 26.3947 440.094 26.448 440.424 26.448C440.776 26.448 441.032 26.3893 441.192 26.272C441.352 26.144 441.432 25.9787 441.432 25.776C441.432 25.5947 441.358 25.4453 441.208 25.328C441.07 25.2107 440.883 25.1093 440.648 25.024C440.424 24.928 440.168 24.8267 439.88 24.72C439.496 24.5813 439.144 24.4053 438.824 24.192C438.504 23.9787 438.243 23.7227 438.04 23.424C437.848 23.1253 437.752 22.768 437.752 22.352C437.752 21.6053 438.03 21.008 438.584 20.56C439.15 20.1013 439.886 19.872 440.792 19.872C441.368 19.872 441.891 19.968 442.36 20.16C442.84 20.3413 443.251 20.5813 443.592 20.88L442.584 22.192C442.296 21.9893 442.008 21.8453 441.72 21.76C441.432 21.664 441.15 21.616 440.872 21.616C440.563 21.616 440.334 21.6747 440.184 21.792C440.035 21.9093 439.96 22.0587 439.96 22.24C439.96 22.3893 440.014 22.5173 440.12 22.624C440.227 22.7307 440.387 22.832 440.6 22.928C440.824 23.0133 441.102 23.1093 441.432 23.216C441.838 23.3547 442.206 23.5307 442.536 23.744C442.878 23.9467 443.144 24.2027 443.336 24.512C443.528 24.8213 443.624 25.1947 443.624 25.632C443.624 26.112 443.496 26.544 443.24 26.928C442.995 27.312 442.632 27.6213 442.152 27.856C441.672 28.08 441.075 28.192 440.36 28.192Z" fill="#26297D"/><path d="M149.12 88V86.096H151.328V80.224H149.424V78.768C149.979 78.6613 150.448 78.5333 150.832 78.384C151.227 78.2347 151.6 78.0533 151.952 77.84H153.68V86.096H155.584V88H149.12ZM161.157 88V82.128C161.157 81.808 161.168 81.4293 161.189 80.992C161.221 80.5547 161.242 80.176 161.253 79.856H161.189C161.061 80.1333 160.928 80.416 160.789 80.704C160.65 80.9813 160.506 81.2693 160.357 81.568L159.013 83.776H164.517V85.568H156.757V83.952L160.469 77.84H163.349V88H161.157ZM167.306 88.192C166.901 88.192 166.56 88.048 166.282 87.76C166.016 87.472 165.882 87.1253 165.882 86.72C165.882 86.2933 166.016 85.9413 166.282 85.664C166.56 85.376 166.901 85.232 167.306 85.232C167.722 85.232 168.064 85.376 168.33 85.664C168.597 85.9413 168.73 86.2933 168.73 86.72C168.73 87.1253 168.597 87.472 168.33 87.76C168.064 88.048 167.722 88.192 167.306 88.192ZM174.199 88.192C173.708 88.192 173.234 88.096 172.775 87.904C172.316 87.712 171.906 87.4133 171.543 87.008C171.18 86.6027 170.892 86.0853 170.679 85.456C170.466 84.816 170.359 84.048 170.359 83.152C170.359 82.2027 170.471 81.3813 170.695 80.688C170.919 79.9947 171.223 79.424 171.607 78.976C171.991 78.528 172.428 78.1973 172.919 77.984C173.41 77.76 173.927 77.648 174.471 77.648C175.143 77.648 175.724 77.7707 176.215 78.016C176.706 78.2507 177.111 78.5333 177.431 78.864L176.199 80.272C176.018 80.08 175.783 79.9147 175.495 79.776C175.207 79.6267 174.914 79.552 174.615 79.552C174.231 79.552 173.874 79.664 173.543 79.888C173.223 80.112 172.967 80.4907 172.775 81.024C172.594 81.5467 172.503 82.256 172.503 83.152C172.503 83.9947 172.578 84.656 172.727 85.136C172.887 85.6053 173.095 85.9413 173.351 86.144C173.607 86.336 173.874 86.432 174.151 86.432C174.386 86.432 174.599 86.3733 174.791 86.256C174.983 86.1387 175.138 85.9627 175.255 85.728C175.372 85.4827 175.431 85.168 175.431 84.784C175.431 84.4213 175.372 84.1333 175.255 83.92C175.138 83.7067 174.978 83.552 174.775 83.456C174.583 83.36 174.359 83.312 174.103 83.312C173.836 83.312 173.559 83.392 173.271 83.552C172.994 83.712 172.743 83.9947 172.519 84.4L172.407 82.864C172.674 82.4693 173.015 82.1707 173.431 81.968C173.847 81.7547 174.22 81.648 174.551 81.648C175.127 81.648 175.644 81.76 176.103 81.984C176.562 82.208 176.919 82.5547 177.175 83.024C177.442 83.4827 177.575 84.0693 177.575 84.784C177.575 85.488 177.42 86.096 177.111 86.608C176.812 87.12 176.407 87.5147 175.895 87.792C175.383 88.0587 174.818 88.192 174.199 88.192ZM182.591 88V77.568H184.943V86.016H189.071V88H182.591ZM192.681 88.192C192.201 88.192 191.779 88.0853 191.417 87.872C191.065 87.6587 190.793 87.3707 190.601 87.008C190.409 86.6453 190.313 86.24 190.313 85.792C190.313 84.9387 190.665 84.2827 191.369 83.824C192.073 83.3547 193.209 83.04 194.777 82.88C194.766 82.6453 194.713 82.448 194.617 82.288C194.531 82.1173 194.398 81.9893 194.217 81.904C194.035 81.808 193.806 81.76 193.529 81.76C193.198 81.76 192.862 81.8187 192.521 81.936C192.179 82.0533 191.811 82.224 191.417 82.448L190.585 80.912C190.926 80.6987 191.278 80.5173 191.641 80.368C192.003 80.208 192.377 80.0853 192.761 80C193.155 79.9147 193.561 79.872 193.977 79.872C194.659 79.872 195.23 80.0053 195.689 80.272C196.158 80.528 196.515 80.9227 196.761 81.456C197.006 81.9787 197.129 82.6507 197.129 83.472V88H195.209L195.049 87.184H194.985C194.643 87.4827 194.286 87.728 193.913 87.92C193.539 88.1013 193.129 88.192 192.681 88.192ZM193.465 86.352C193.731 86.352 193.966 86.2933 194.169 86.176C194.371 86.0587 194.574 85.8987 194.777 85.696V84.352C194.222 84.4267 193.779 84.5227 193.449 84.64C193.129 84.7573 192.899 84.9013 192.761 85.072C192.633 85.232 192.569 85.4133 192.569 85.616C192.569 85.8613 192.649 86.048 192.809 86.176C192.979 86.2933 193.198 86.352 193.465 86.352ZM199.118 88V76.784H201.438V83.184H201.502L203.966 80.064H206.542L203.79 83.36L206.75 88H204.206L202.414 84.912L201.438 86.016V88H199.118ZM207.884 88V76.784H210.236V79.536L210.124 80.96C210.422 80.6933 210.769 80.448 211.164 80.224C211.569 79.9893 212.038 79.872 212.572 79.872C213.446 79.872 214.076 80.16 214.46 80.736C214.844 81.3013 215.036 82.08 215.036 83.072V88H212.684V83.376C212.684 82.8 212.604 82.4053 212.444 82.192C212.294 81.9787 212.049 81.872 211.708 81.872C211.409 81.872 211.153 81.9413 210.94 82.08C210.726 82.208 210.492 82.3947 210.236 82.64V88H207.884ZM219.36 88.192C218.838 88.192 218.299 88.0907 217.744 87.888C217.19 87.6853 216.715 87.392 216.32 87.008L217.312 85.68C217.675 85.968 218.032 86.1707 218.384 86.288C218.747 86.3947 219.094 86.448 219.424 86.448C219.776 86.448 220.032 86.3893 220.192 86.272C220.352 86.144 220.432 85.9787 220.432 85.776C220.432 85.5947 220.358 85.4453 220.208 85.328C220.07 85.2107 219.883 85.1093 219.648 85.024C219.424 84.928 219.168 84.8267 218.88 84.72C218.496 84.5813 218.144 84.4053 217.824 84.192C217.504 83.9787 217.243 83.7227 217.04 83.424C216.848 83.1253 216.752 82.768 216.752 82.352C216.752 81.6053 217.03 81.008 217.584 80.56C218.15 80.1013 218.886 79.872 219.792 79.872C220.368 79.872 220.891 79.968 221.36 80.16C221.84 80.3413 222.251 80.5813 222.592 80.88L221.584 82.192C221.296 81.9893 221.008 81.8453 220.72 81.76C220.432 81.664 220.15 81.616 219.872 81.616C219.563 81.616 219.334 81.6747 219.184 81.792C219.035 81.9093 218.96 82.0587 218.96 82.24C218.96 82.3893 219.014 82.5173 219.12 82.624C219.227 82.7307 219.387 82.832 219.6 82.928C219.824 83.0133 220.102 83.1093 220.432 83.216C220.838 83.3547 221.206 83.5307 221.536 83.744C221.878 83.9467 222.144 84.2027 222.336 84.512C222.528 84.8213 222.624 85.1947 222.624 85.632C222.624 86.112 222.496 86.544 222.24 86.928C221.995 87.312 221.632 87.6213 221.152 87.856C220.672 88.08 220.075 88.192 219.36 88.192Z" fill="#26297D"/><path d="M319.208 148.192C318.536 148.192 317.928 148.075 317.384 147.84C316.851 147.605 316.429 147.28 316.12 146.864C315.821 146.437 315.672 145.952 315.672 145.408C315.672 144.992 315.747 144.635 315.896 144.336C316.056 144.027 316.264 143.755 316.52 143.52C316.787 143.285 317.08 143.083 317.4 142.912V142.848C317.016 142.549 316.691 142.208 316.424 141.824C316.168 141.44 316.04 140.981 316.04 140.448C316.04 139.872 316.179 139.376 316.456 138.96C316.733 138.533 317.117 138.208 317.608 137.984C318.099 137.76 318.659 137.648 319.288 137.648C320.227 137.648 320.973 137.904 321.528 138.416C322.093 138.917 322.376 139.589 322.376 140.432C322.376 140.752 322.312 141.056 322.184 141.344C322.067 141.621 321.907 141.872 321.704 142.096C321.501 142.309 321.283 142.496 321.048 142.656V142.72C321.368 142.891 321.661 143.099 321.928 143.344C322.195 143.579 322.408 143.867 322.568 144.208C322.728 144.539 322.808 144.928 322.808 145.376C322.808 145.909 322.659 146.389 322.36 146.816C322.061 147.232 321.64 147.568 321.096 147.824C320.563 148.069 319.933 148.192 319.208 148.192ZM319.848 142.08C320.051 141.845 320.205 141.605 320.312 141.36C320.419 141.115 320.472 140.859 320.472 140.592C320.472 140.325 320.424 140.096 320.328 139.904C320.232 139.712 320.088 139.563 319.896 139.456C319.715 139.339 319.496 139.28 319.24 139.28C318.931 139.28 318.664 139.381 318.44 139.584C318.216 139.776 318.104 140.064 318.104 140.448C318.104 140.725 318.179 140.96 318.328 141.152C318.477 141.344 318.68 141.515 318.936 141.664C319.203 141.813 319.507 141.952 319.848 142.08ZM319.256 146.56C319.512 146.56 319.741 146.517 319.944 146.432C320.157 146.336 320.323 146.197 320.44 146.016C320.557 145.824 320.616 145.584 320.616 145.296C320.616 144.997 320.525 144.752 320.344 144.56C320.173 144.357 319.923 144.181 319.592 144.032C319.272 143.872 318.899 143.701 318.472 143.52C318.248 143.723 318.061 143.968 317.912 144.256C317.763 144.533 317.688 144.827 317.688 145.136C317.688 145.435 317.757 145.691 317.896 145.904C318.045 146.117 318.237 146.283 318.472 146.4C318.717 146.507 318.979 146.56 319.256 146.56ZM327.341 148.192C326.797 148.192 326.301 148.128 325.853 148C325.416 147.883 325.026 147.717 324.685 147.504C324.344 147.291 324.05 147.04 323.805 146.752L324.893 145.264C325.202 145.563 325.544 145.808 325.917 146C326.29 146.192 326.69 146.288 327.117 146.288C327.608 146.288 328.002 146.187 328.301 145.984C328.61 145.771 328.765 145.472 328.765 145.088C328.765 144.789 328.69 144.533 328.541 144.32C328.392 144.096 328.12 143.925 327.725 143.808C327.341 143.691 326.776 143.632 326.029 143.632V141.968C326.637 141.968 327.117 141.909 327.469 141.792C327.821 141.675 328.066 141.515 328.205 141.312C328.354 141.109 328.429 140.875 328.429 140.608C328.429 140.245 328.317 139.968 328.093 139.776C327.88 139.584 327.576 139.488 327.181 139.488C326.818 139.488 326.488 139.568 326.189 139.728C325.901 139.877 325.597 140.096 325.277 140.384L324.093 138.944C324.562 138.539 325.058 138.224 325.581 138C326.104 137.765 326.674 137.648 327.293 137.648C327.986 137.648 328.594 137.76 329.117 137.984C329.65 138.197 330.061 138.512 330.349 138.928C330.648 139.333 330.797 139.835 330.797 140.432C330.797 140.955 330.648 141.403 330.349 141.776C330.061 142.149 329.645 142.453 329.101 142.688V142.752C329.485 142.869 329.832 143.04 330.141 143.264C330.45 143.477 330.69 143.749 330.861 144.08C331.032 144.411 331.117 144.795 331.117 145.232C331.117 145.861 330.941 146.4 330.589 146.848C330.248 147.285 329.789 147.621 329.213 147.856C328.648 148.08 328.024 148.192 327.341 148.192ZM334.306 148.192C333.901 148.192 333.56 148.048 333.282 147.76C333.016 147.472 332.882 147.125 332.882 146.72C332.882 146.293 333.016 145.941 333.282 145.664C333.56 145.376 333.901 145.232 334.306 145.232C334.722 145.232 335.064 145.376 335.33 145.664C335.597 145.941 335.73 146.293 335.73 146.72C335.73 147.125 335.597 147.472 335.33 147.76C335.064 148.048 334.722 148.192 334.306 148.192ZM340.927 148.192C339.839 148.192 338.959 147.739 338.287 146.832C337.626 145.925 337.295 144.608 337.295 142.88C337.295 141.141 337.626 139.835 338.287 138.96C338.959 138.085 339.839 137.648 340.927 137.648C342.015 137.648 342.89 138.091 343.551 138.976C344.223 139.851 344.559 141.152 344.559 142.88C344.559 144.608 344.223 145.925 343.551 146.832C342.89 147.739 342.015 148.192 340.927 148.192ZM340.927 146.368C341.194 146.368 341.434 146.272 341.647 146.08C341.86 145.877 342.026 145.525 342.143 145.024C342.271 144.512 342.335 143.797 342.335 142.88C342.335 141.952 342.271 141.243 342.143 140.752C342.026 140.261 341.86 139.925 341.647 139.744C341.434 139.563 341.194 139.472 340.927 139.472C340.66 139.472 340.42 139.563 340.207 139.744C339.994 139.925 339.823 140.261 339.695 140.752C339.578 141.243 339.519 141.952 339.519 142.88C339.519 143.797 339.578 144.512 339.695 145.024C339.823 145.525 339.994 145.877 340.207 146.08C340.42 146.272 340.66 146.368 340.927 146.368ZM346.276 148V146.096H348.484V140.224H346.58V138.768C347.135 138.661 347.604 138.533 347.988 138.384C348.383 138.235 348.756 138.053 349.108 137.84H350.836V146.096H352.74V148H346.276ZM359.821 144C359.319 144 358.871 143.867 358.477 143.6C358.093 143.333 357.789 142.955 357.565 142.464C357.341 141.963 357.229 141.365 357.229 140.672C357.229 139.627 357.474 138.816 357.965 138.24C358.455 137.664 359.074 137.376 359.821 137.376C360.578 137.376 361.202 137.664 361.693 138.24C362.183 138.816 362.429 139.627 362.429 140.672C362.429 141.365 362.317 141.963 362.093 142.464C361.869 142.955 361.559 143.333 361.165 143.6C360.77 143.867 360.322 144 359.821 144ZM359.821 142.688C360.098 142.688 360.327 142.539 360.509 142.24C360.69 141.931 360.781 141.408 360.781 140.672C360.781 139.925 360.69 139.408 360.509 139.12C360.327 138.832 360.098 138.688 359.821 138.688C359.565 138.688 359.341 138.832 359.149 139.12C358.957 139.408 358.861 139.925 358.861 140.672C358.861 141.408 358.957 141.931 359.149 142.24C359.341 142.539 359.565 142.688 359.821 142.688ZM360.173 148.192L365.805 137.376H367.165L361.533 148.192H360.173ZM367.517 148.192C367.015 148.192 366.567 148.059 366.173 147.792C365.789 147.525 365.485 147.147 365.26 146.656C365.037 146.155 364.925 145.557 364.925 144.864C364.925 143.819 365.17 143.008 365.661 142.432C366.151 141.856 366.77 141.568 367.517 141.568C368.274 141.568 368.898 141.856 369.389 142.432C369.879 143.008 370.125 143.819 370.125 144.864C370.125 145.557 370.013 146.155 369.789 146.656C369.565 147.147 369.255 147.525 368.861 147.792C368.466 148.059 368.018 148.192 367.517 148.192ZM367.517 146.88C367.794 146.88 368.023 146.731 368.205 146.432C368.386 146.123 368.477 145.6 368.477 144.864C368.477 144.117 368.386 143.6 368.205 143.312C368.023 143.024 367.794 142.88 367.517 142.88C367.261 142.88 367.037 143.024 366.845 143.312C366.653 143.6 366.557 144.117 366.557 144.864C366.557 145.6 366.653 146.123 366.845 146.432C367.037 146.731 367.261 146.88 367.517 146.88Z" fill="#26297D"/><path d="M19.924 27V19.176H21.892L23.14 22.656C23.22 22.888 23.292 23.124 23.356 23.364C23.428 23.596 23.5 23.84 23.572 24.096H23.62C23.692 23.84 23.76 23.596 23.824 23.364C23.888 23.124 23.96 22.888 24.04 22.656L25.264 19.176H27.232V27H25.612V24.132C25.612 23.876 25.624 23.576 25.648 23.232C25.68 22.88 25.712 22.532 25.744 22.188C25.784 21.836 25.82 21.532 25.852 21.276H25.804L25.168 23.34L24.064 26.328H23.032L21.94 23.34L21.328 21.276H21.28C21.312 21.532 21.344 21.836 21.376 22.188C21.416 22.532 21.448 22.88 21.472 23.232C21.496 23.576 21.508 23.876 21.508 24.132V27H19.924ZM30.4206 27.144C30.0606 27.144 29.7446 27.064 29.4726 26.904C29.2086 26.744 29.0046 26.528 28.8606 26.256C28.7166 25.984 28.6446 25.68 28.6446 25.344C28.6446 24.704 28.9086 24.212 29.4366 23.868C29.9646 23.516 30.8166 23.28 31.9926 23.16C31.9846 22.984 31.9446 22.836 31.8726 22.716C31.8086 22.588 31.7086 22.492 31.5726 22.428C31.4366 22.356 31.2646 22.32 31.0566 22.32C30.8086 22.32 30.5566 22.364 30.3006 22.452C30.0446 22.54 29.7686 22.668 29.4726 22.836L28.8486 21.684C29.1046 21.524 29.3686 21.388 29.6406 21.276C29.9126 21.156 30.1926 21.064 30.4806 21C30.7766 20.936 31.0806 20.904 31.3926 20.904C31.9046 20.904 32.3326 21.004 32.6766 21.204C33.0286 21.396 33.2966 21.692 33.4806 22.092C33.6646 22.484 33.7566 22.988 33.7566 23.604V27H32.3166L32.1966 26.388H32.1486C31.8926 26.612 31.6246 26.796 31.3446 26.94C31.0646 27.076 30.7566 27.144 30.4206 27.144ZM31.0086 25.764C31.2086 25.764 31.3846 25.72 31.5366 25.632C31.6886 25.544 31.8406 25.424 31.9926 25.272V24.264C31.5766 24.32 31.2446 24.392 30.9966 24.48C30.7566 24.568 30.5846 24.676 30.4806 24.804C30.3846 24.924 30.3366 25.06 30.3366 25.212C30.3366 25.396 30.3966 25.536 30.5166 25.632C30.6446 25.72 30.8086 25.764 31.0086 25.764ZM34.6368 27L36.4608 23.904L34.7448 21.048H36.6408L37.1688 22.008C37.2488 22.176 37.3288 22.348 37.4088 22.524C37.4968 22.692 37.5848 22.86 37.6728 23.028H37.7208C37.7848 22.86 37.8528 22.692 37.9248 22.524C37.9968 22.348 38.0648 22.176 38.1288 22.008L38.5368 21.048H40.3608L38.6328 24.108L40.4688 27H38.5728L37.9967 26.016C37.9008 25.848 37.8048 25.676 37.7088 25.5C37.6208 25.324 37.5288 25.152 37.4328 24.984H37.3848C37.3128 25.152 37.2368 25.324 37.1568 25.5C37.0768 25.668 37.0008 25.84 36.9288 26.016L36.4608 27H34.6368ZM41.4128 27V21.048H43.1768V27H41.4128ZM42.2888 20.172C41.9928 20.172 41.7528 20.088 41.5688 19.92C41.3848 19.752 41.2928 19.528 41.2928 19.248C41.2928 18.968 41.3848 18.744 41.5688 18.576C41.7528 18.408 41.9928 18.324 42.2888 18.324C42.5848 18.324 42.8248 18.408 43.0088 18.576C43.1928 18.744 43.2848 18.968 43.2848 19.248C43.2848 19.528 43.1928 19.752 43.0088 19.92C42.8248 20.088 42.5848 20.172 42.2888 20.172ZM44.7292 27V21.048H46.1692L46.2892 21.816H46.3372C46.5772 21.568 46.8372 21.356 47.1172 21.18C47.4052 20.996 47.7452 20.904 48.1372 20.904C48.5612 20.904 48.9052 20.992 49.1692 21.168C49.4332 21.336 49.6372 21.58 49.7812 21.9C50.0452 21.628 50.3252 21.396 50.6212 21.204C50.9172 21.004 51.2612 20.904 51.6532 20.904C52.3012 20.904 52.7732 21.12 53.0692 21.552C53.3652 21.976 53.5132 22.56 53.5132 23.304V27H51.7492V23.532C51.7492 23.1 51.6892 22.804 51.5692 22.644C51.4572 22.484 51.2732 22.404 51.0172 22.404C50.8652 22.404 50.7052 22.452 50.5372 22.548C50.3692 22.636 50.1892 22.78 49.9972 22.98V27H48.2332V23.532C48.2332 23.1 48.1732 22.804 48.0532 22.644C47.9412 22.484 47.7572 22.404 47.5012 22.404C47.1972 22.404 46.8612 22.596 46.4932 22.98V27H44.7292ZM56.8063 27.144C56.1583 27.144 55.6863 26.932 55.3903 26.508C55.1023 26.076 54.9583 25.488 54.9583 24.744V21.048H56.7223V24.516C56.7223 24.948 56.7823 25.244 56.9023 25.404C57.0223 25.564 57.2103 25.644 57.4663 25.644C57.6823 25.644 57.8703 25.592 58.0303 25.488C58.1903 25.384 58.3543 25.216 58.5223 24.984V21.048H60.2863V27H58.8463L58.7143 26.172H58.6783C58.4303 26.468 58.1583 26.704 57.8623 26.88C57.5663 27.056 57.2143 27.144 56.8063 27.144ZM61.8386 27V21.048H63.2786L63.3986 21.816H63.4466C63.6866 21.568 63.9466 21.356 64.2266 21.18C64.5146 20.996 64.8546 20.904 65.2466 20.904C65.6706 20.904 66.0146 20.992 66.2786 21.168C66.5426 21.336 66.7466 21.58 66.8906 21.9C67.1546 21.628 67.4346 21.396 67.7306 21.204C68.0266 21.004 68.3706 20.904 68.7626 20.904C69.4106 20.904 69.8826 21.12 70.1786 21.552C70.4746 21.976 70.6226 22.56 70.6226 23.304V27H68.8586V23.532C68.8586 23.1 68.7986 22.804 68.6786 22.644C68.5666 22.484 68.3826 22.404 68.1266 22.404C67.9746 22.404 67.8146 22.452 67.6466 22.548C67.4786 22.636 67.2986 22.78 67.1066 22.98V27H65.3426V23.532C65.3426 23.1 65.2826 22.804 65.1626 22.644C65.0506 22.484 64.8666 22.404 64.6106 22.404C64.3066 22.404 63.9706 22.596 63.6026 22.98V27H61.8386ZM74.674 27V19.176H77.362C77.938 19.176 78.458 19.256 78.922 19.416C79.394 19.568 79.77 19.828 80.05 20.196C80.33 20.564 80.47 21.064 80.47 21.696C80.47 22.304 80.33 22.804 80.05 23.196C79.77 23.588 79.398 23.88 78.934 24.072C78.47 24.256 77.962 24.348 77.41 24.348H76.438V27H74.674ZM76.438 22.944H77.302C77.79 22.944 78.15 22.836 78.382 22.62C78.622 22.404 78.742 22.096 78.742 21.696C78.742 21.28 78.614 20.992 78.358 20.832C78.102 20.664 77.734 20.58 77.254 20.58H76.438V22.944ZM82.78 27.144C82.42 27.144 82.104 27.064 81.832 26.904C81.568 26.744 81.364 26.528 81.22 26.256C81.076 25.984 81.004 25.68 81.004 25.344C81.004 24.704 81.268 24.212 81.796 23.868C82.324 23.516 83.176 23.28 84.352 23.16C84.344 22.984 84.304 22.836 84.232 22.716C84.168 22.588 84.068 22.492 83.932 22.428C83.796 22.356 83.624 22.32 83.416 22.32C83.168 22.32 82.916 22.364 82.66 22.452C82.404 22.54 82.128 22.668 81.832 22.836L81.208 21.684C81.464 21.524 81.728 21.388 82 21.276C82.272 21.156 82.552 21.064 82.84 21C83.136 20.936 83.44 20.904 83.752 20.904C84.264 20.904 84.692 21.004 85.036 21.204C85.388 21.396 85.656 21.692 85.84 22.092C86.024 22.484 86.116 22.988 86.116 23.604V27H84.676L84.556 26.388H84.508C84.252 26.612 83.984 26.796 83.704 26.94C83.424 27.076 83.116 27.144 82.78 27.144ZM83.368 25.764C83.568 25.764 83.744 25.72 83.896 25.632C84.048 25.544 84.2 25.424 84.352 25.272V24.264C83.936 24.32 83.604 24.392 83.356 24.48C83.116 24.568 82.944 24.676 82.84 24.804C82.744 24.924 82.696 25.06 82.696 25.212C82.696 25.396 82.756 25.536 82.876 25.632C83.004 25.72 83.168 25.764 83.368 25.764ZM90.2361 27.144C89.6761 27.144 89.1681 27.02 88.7121 26.772C88.2641 26.524 87.9081 26.168 87.6441 25.704C87.3881 25.24 87.2601 24.68 87.2601 24.024C87.2601 23.368 87.4041 22.808 87.6921 22.344C87.9801 21.88 88.3601 21.524 88.8321 21.276C89.3041 21.028 89.8121 20.904 90.3561 20.904C90.7241 20.904 91.0521 20.964 91.3401 21.084C91.6361 21.196 91.8881 21.348 92.0961 21.54L91.2681 22.632C91.1641 22.544 91.0441 22.472 90.9081 22.416C90.7801 22.36 90.6321 22.332 90.4641 22.332C90.1841 22.332 89.9401 22.4 89.7321 22.536C89.5241 22.672 89.3601 22.868 89.2401 23.124C89.1201 23.38 89.0601 23.68 89.0601 24.024C89.0601 24.368 89.1201 24.668 89.2401 24.924C89.3601 25.18 89.5201 25.376 89.7201 25.512C89.9281 25.648 90.1601 25.716 90.4161 25.716C90.6161 25.716 90.8041 25.68 90.9801 25.608C91.1561 25.536 91.3201 25.444 91.4721 25.332L92.1681 26.412C91.9201 26.636 91.6281 26.816 91.2921 26.952C90.9561 27.08 90.6041 27.144 90.2361 27.144ZM93.2214 27V18.588H94.9614V23.388H95.0094L96.8574 21.048H98.7894L96.7254 23.52L98.9454 27H97.0374L95.6934 24.684L94.9614 25.512V27H93.2214ZM101.178 27.144C100.818 27.144 100.502 27.064 100.23 26.904C99.9664 26.744 99.7624 26.528 99.6184 26.256C99.4744 25.984 99.4024 25.68 99.4024 25.344C99.4024 24.704 99.6664 24.212 100.194 23.868C100.722 23.516 101.574 23.28 102.75 23.16C102.742 22.984 102.702 22.836 102.63 22.716C102.566 22.588 102.466 22.492 102.33 22.428C102.194 22.356 102.022 22.32 101.814 22.32C101.566 22.32 101.314 22.364 101.058 22.452C100.802 22.54 100.526 22.668 100.23 22.836L99.6064 21.684C99.8624 21.524 100.126 21.388 100.398 21.276C100.67 21.156 100.95 21.064 101.238 21C101.534 20.936 101.838 20.904 102.15 20.904C102.662 20.904 103.09 21.004 103.434 21.204C103.786 21.396 104.054 21.692 104.238 22.092C104.422 22.484 104.514 22.988 104.514 23.604V27H103.074L102.954 26.388H102.906C102.65 26.612 102.382 26.796 102.102 26.94C101.822 27.076 101.514 27.144 101.178 27.144ZM101.766 25.764C101.966 25.764 102.142 25.72 102.294 25.632C102.446 25.544 102.598 25.424 102.75 25.272V24.264C102.334 24.32 102.002 24.392 101.754 24.48C101.514 24.568 101.342 24.676 101.238 24.804C101.142 24.924 101.094 25.06 101.094 25.212C101.094 25.396 101.154 25.536 101.274 25.632C101.402 25.72 101.566 25.764 101.766 25.764ZM108.131 29.532C107.667 29.532 107.243 29.476 106.859 29.364C106.483 29.26 106.183 29.096 105.959 28.872C105.743 28.656 105.635 28.372 105.635 28.02C105.635 27.772 105.707 27.548 105.851 27.348C106.003 27.148 106.215 26.972 106.487 26.82V26.772C106.335 26.668 106.203 26.536 106.091 26.376C105.987 26.208 105.935 26.004 105.935 25.764C105.935 25.548 105.999 25.344 106.127 25.152C106.255 24.952 106.415 24.784 106.607 24.648V24.6C106.391 24.456 106.203 24.248 106.043 23.976C105.883 23.704 105.803 23.396 105.803 23.052C105.803 22.58 105.919 22.184 106.151 21.864C106.383 21.544 106.687 21.304 107.063 21.144C107.439 20.984 107.839 20.904 108.263 20.904C108.431 20.904 108.591 20.916 108.743 20.94C108.903 20.964 109.051 21 109.187 21.048H111.359V22.332H110.363V22.38C110.443 22.484 110.503 22.6 110.543 22.728C110.583 22.848 110.603 22.984 110.603 23.136C110.603 23.584 110.499 23.956 110.291 24.252C110.083 24.54 109.799 24.756 109.439 24.9C109.087 25.044 108.695 25.116 108.263 25.116C108.159 25.116 108.047 25.108 107.927 25.092C107.807 25.068 107.679 25.036 107.543 24.996C107.471 25.06 107.415 25.124 107.375 25.188C107.343 25.252 107.327 25.336 107.327 25.44C107.327 25.584 107.395 25.696 107.531 25.776C107.667 25.848 107.899 25.884 108.227 25.884H109.187C109.923 25.884 110.483 26.004 110.867 26.244C111.259 26.476 111.455 26.86 111.455 27.396C111.455 27.804 111.319 28.168 111.047 28.488C110.775 28.816 110.391 29.072 109.895 29.256C109.399 29.44 108.811 29.532 108.131 29.532ZM108.263 24.048C108.423 24.048 108.563 24.012 108.683 23.94C108.803 23.86 108.899 23.748 108.971 23.604C109.043 23.46 109.079 23.276 109.079 23.052C109.079 22.732 108.999 22.492 108.839 22.332C108.687 22.172 108.495 22.092 108.263 22.092C108.031 22.092 107.835 22.172 107.675 22.332C107.523 22.492 107.447 22.732 107.447 23.052C107.447 23.276 107.483 23.46 107.555 23.604C107.635 23.748 107.735 23.86 107.855 23.94C107.975 24.012 108.111 24.048 108.263 24.048ZM108.407 28.428C108.671 28.428 108.903 28.396 109.103 28.332C109.311 28.268 109.475 28.18 109.595 28.068C109.715 27.956 109.775 27.832 109.775 27.696C109.775 27.504 109.695 27.376 109.535 27.312C109.375 27.256 109.151 27.228 108.863 27.228H108.251C108.043 27.228 107.875 27.22 107.747 27.204C107.627 27.196 107.515 27.18 107.411 27.156C107.299 27.252 107.215 27.344 107.159 27.432C107.111 27.528 107.087 27.632 107.087 27.744C107.087 27.968 107.207 28.136 107.447 28.248C107.695 28.368 108.015 28.428 108.407 28.428ZM114.87 27.144C114.302 27.144 113.79 27.02 113.334 26.772C112.878 26.524 112.518 26.168 112.254 25.704C111.99 25.24 111.858 24.68 111.858 24.024C111.858 23.376 111.99 22.82 112.254 22.356C112.526 21.892 112.878 21.536 113.31 21.288C113.742 21.032 114.194 20.904 114.666 20.904C115.234 20.904 115.706 21.032 116.082 21.288C116.458 21.536 116.738 21.876 116.922 22.308C117.106 22.74 117.198 23.224 117.198 23.76C117.198 23.912 117.19 24.064 117.174 24.216C117.158 24.36 117.142 24.476 117.126 24.564H113.226L113.202 23.34H115.686C115.686 23.028 115.61 22.772 115.458 22.572C115.306 22.364 115.054 22.26 114.702 22.26C114.51 22.26 114.322 22.312 114.138 22.416C113.954 22.52 113.802 22.7 113.682 22.956C113.562 23.212 113.506 23.568 113.514 24.024C113.522 24.472 113.602 24.824 113.754 25.08C113.914 25.336 114.114 25.52 114.354 25.632C114.594 25.736 114.846 25.788 115.11 25.788C115.342 25.788 115.562 25.756 115.77 25.692C115.986 25.62 116.198 25.524 116.406 25.404L116.982 26.484C116.686 26.692 116.35 26.856 115.974 26.976C115.598 27.088 115.23 27.144 114.87 27.144Z" fill="white"/><path d="M18.928 85L21.376 77.176H23.488L25.948 85H24.076L23.056 81.04C22.944 80.648 22.836 80.232 22.732 79.792C22.628 79.352 22.524 78.928 22.42 78.52H22.372C22.284 78.928 22.188 79.352 22.084 79.792C21.98 80.232 21.872 80.648 21.76 81.04L20.728 85H18.928ZM20.536 83.14V81.76H24.304V83.14H20.536ZM27.8277 85L25.8237 79.048H27.5997L28.3677 81.856C28.4477 82.152 28.5237 82.452 28.5957 82.756C28.6757 83.06 28.7557 83.372 28.8357 83.692H28.8837C28.9557 83.372 29.0317 83.06 29.1117 82.756C29.1917 82.452 29.2677 82.152 29.3397 81.856L30.1197 79.048H31.8117L29.8677 85H27.8277ZM35.3112 85.144C34.7432 85.144 34.2312 85.02 33.7752 84.772C33.3192 84.524 32.9592 84.168 32.6952 83.704C32.4312 83.24 32.2992 82.68 32.2992 82.024C32.2992 81.376 32.4312 80.82 32.6952 80.356C32.9672 79.892 33.3192 79.536 33.7512 79.288C34.1832 79.032 34.6352 78.904 35.1072 78.904C35.6752 78.904 36.1472 79.032 36.5232 79.288C36.8992 79.536 37.1792 79.876 37.3632 80.308C37.5472 80.74 37.6392 81.224 37.6392 81.76C37.6392 81.912 37.6312 82.064 37.6152 82.216C37.5992 82.36 37.5832 82.476 37.5672 82.564H33.6672L33.6432 81.34H36.1272C36.1272 81.028 36.0512 80.772 35.8992 80.572C35.7472 80.364 35.4952 80.26 35.1432 80.26C34.9512 80.26 34.7632 80.312 34.5792 80.416C34.3952 80.52 34.2432 80.7 34.1232 80.956C34.0032 81.212 33.9472 81.568 33.9552 82.024C33.9632 82.472 34.0432 82.824 34.1952 83.08C34.3552 83.336 34.5552 83.52 34.7952 83.632C35.0352 83.736 35.2872 83.788 35.5512 83.788C35.7832 83.788 36.0032 83.756 36.2112 83.692C36.4272 83.62 36.6392 83.524 36.8472 83.404L37.4232 84.484C37.1272 84.692 36.7912 84.856 36.4152 84.976C36.0392 85.088 35.6712 85.144 35.3112 85.144ZM38.8581 85V79.048H40.2981L40.4181 80.092H40.4661C40.6821 79.692 40.9381 79.396 41.2341 79.204C41.5381 79.004 41.8461 78.904 42.1581 78.904C42.3261 78.904 42.4661 78.916 42.5781 78.94C42.6901 78.956 42.7861 78.984 42.8661 79.024L42.5301 80.524C42.4341 80.5 42.3421 80.484 42.2541 80.476C42.1661 80.46 42.0581 80.452 41.9301 80.452C41.7061 80.452 41.4701 80.532 41.2221 80.692C40.9821 80.852 40.7821 81.136 40.6221 81.544V85H38.8581ZM44.8113 85.144C44.4513 85.144 44.1353 85.064 43.8633 84.904C43.5993 84.744 43.3953 84.528 43.2513 84.256C43.1073 83.984 43.0353 83.68 43.0353 83.344C43.0353 82.704 43.2993 82.212 43.8273 81.868C44.3553 81.516 45.2073 81.28 46.3833 81.16C46.3753 80.984 46.3353 80.836 46.2633 80.716C46.1993 80.588 46.0993 80.492 45.9633 80.428C45.8273 80.356 45.6553 80.32 45.4473 80.32C45.1993 80.32 44.9473 80.364 44.6913 80.452C44.4353 80.54 44.1593 80.668 43.8633 80.836L43.2393 79.684C43.4953 79.524 43.7593 79.388 44.0312 79.276C44.3033 79.156 44.5833 79.064 44.8713 79C45.1673 78.936 45.4713 78.904 45.7833 78.904C46.2953 78.904 46.7233 79.004 47.0673 79.204C47.4193 79.396 47.6873 79.692 47.8713 80.092C48.0553 80.484 48.1473 80.988 48.1473 81.604V85H46.7073L46.5873 84.388H46.5393C46.2833 84.612 46.0153 84.796 45.7353 84.94C45.4553 85.076 45.1473 85.144 44.8113 85.144ZM45.3993 83.764C45.5993 83.764 45.7753 83.72 45.9273 83.632C46.0793 83.544 46.2313 83.424 46.3833 83.272V82.264C45.9673 82.32 45.6353 82.392 45.3873 82.48C45.1473 82.568 44.9753 82.676 44.8713 82.804C44.7753 82.924 44.7273 83.06 44.7273 83.212C44.7273 83.396 44.7873 83.536 44.9073 83.632C45.0353 83.72 45.1993 83.764 45.3993 83.764ZM51.7634 87.532C51.2994 87.532 50.8754 87.476 50.4914 87.364C50.1154 87.26 49.8154 87.096 49.5914 86.872C49.3754 86.656 49.2674 86.372 49.2674 86.02C49.2674 85.772 49.3394 85.548 49.4834 85.348C49.6354 85.148 49.8474 84.972 50.1194 84.82V84.772C49.9674 84.668 49.8354 84.536 49.7234 84.376C49.6194 84.208 49.5674 84.004 49.5674 83.764C49.5674 83.548 49.6314 83.344 49.7594 83.152C49.8874 82.952 50.0474 82.784 50.2394 82.648V82.6C50.0234 82.456 49.8354 82.248 49.6754 81.976C49.5154 81.704 49.4354 81.396 49.4354 81.052C49.4354 80.58 49.5514 80.184 49.7834 79.864C50.0154 79.544 50.3194 79.304 50.6954 79.144C51.0714 78.984 51.4714 78.904 51.8954 78.904C52.0634 78.904 52.2234 78.916 52.3754 78.94C52.5354 78.964 52.6834 79 52.8194 79.048H54.9914V80.332H53.9954V80.38C54.0754 80.484 54.1354 80.6 54.1754 80.728C54.2154 80.848 54.2354 80.984 54.2354 81.136C54.2354 81.584 54.1314 81.956 53.9234 82.252C53.7154 82.54 53.4314 82.756 53.0714 82.9C52.7194 83.044 52.3274 83.116 51.8954 83.116C51.7914 83.116 51.6794 83.108 51.5594 83.092C51.4394 83.068 51.3114 83.036 51.1754 82.996C51.1034 83.06 51.0474 83.124 51.0074 83.188C50.9754 83.252 50.9594 83.336 50.9594 83.44C50.9594 83.584 51.0274 83.696 51.1634 83.776C51.2994 83.848 51.5314 83.884 51.8594 83.884H52.8194C53.5554 83.884 54.1154 84.004 54.4994 84.244C54.8914 84.476 55.0874 84.86 55.0874 85.396C55.0874 85.804 54.9514 86.168 54.6794 86.488C54.4074 86.816 54.0234 87.072 53.5274 87.256C53.0314 87.44 52.4434 87.532 51.7634 87.532ZM51.8954 82.048C52.0554 82.048 52.1954 82.012 52.3154 81.94C52.4354 81.86 52.5314 81.748 52.6034 81.604C52.6754 81.46 52.7114 81.276 52.7114 81.052C52.7114 80.732 52.6314 80.492 52.4714 80.332C52.3194 80.172 52.1274 80.092 51.8954 80.092C51.6634 80.092 51.4674 80.172 51.3074 80.332C51.1554 80.492 51.0794 80.732 51.0794 81.052C51.0794 81.276 51.1154 81.46 51.1874 81.604C51.2674 81.748 51.3674 81.86 51.4874 81.94C51.6074 82.012 51.7434 82.048 51.8954 82.048ZM52.0394 86.428C52.3034 86.428 52.5354 86.396 52.7354 86.332C52.9434 86.268 53.1074 86.18 53.2274 86.068C53.3474 85.956 53.4074 85.832 53.4074 85.696C53.4074 85.504 53.3274 85.376 53.1674 85.312C53.0074 85.256 52.7834 85.228 52.4954 85.228H51.8834C51.6754 85.228 51.5074 85.22 51.3794 85.204C51.2594 85.196 51.1474 85.18 51.0434 85.156C50.9314 85.252 50.8474 85.344 50.7914 85.432C50.7434 85.528 50.7194 85.632 50.7194 85.744C50.7194 85.968 50.8394 86.136 51.0794 86.248C51.3274 86.368 51.6474 86.428 52.0394 86.428ZM58.5026 85.144C57.9346 85.144 57.4226 85.02 56.9666 84.772C56.5106 84.524 56.1506 84.168 55.8866 83.704C55.6226 83.24 55.4906 82.68 55.4906 82.024C55.4906 81.376 55.6226 80.82 55.8866 80.356C56.1586 79.892 56.5106 79.536 56.9426 79.288C57.3746 79.032 57.8266 78.904 58.2986 78.904C58.8666 78.904 59.3386 79.032 59.7146 79.288C60.0906 79.536 60.3706 79.876 60.5546 80.308C60.7386 80.74 60.8306 81.224 60.8306 81.76C60.8306 81.912 60.8226 82.064 60.8066 82.216C60.7906 82.36 60.7746 82.476 60.7586 82.564H56.8586L56.8346 81.34H59.3186C59.3186 81.028 59.2426 80.772 59.0906 80.572C58.9386 80.364 58.6866 80.26 58.3346 80.26C58.1426 80.26 57.9546 80.312 57.7706 80.416C57.5866 80.52 57.4346 80.7 57.3146 80.956C57.1946 81.212 57.1386 81.568 57.1466 82.024C57.1546 82.472 57.2346 82.824 57.3866 83.08C57.5466 83.336 57.7466 83.52 57.9866 83.632C58.2266 83.736 58.4786 83.788 58.7426 83.788C58.9746 83.788 59.1946 83.756 59.4026 83.692C59.6186 83.62 59.8306 83.524 60.0386 83.404L60.6146 84.484C60.3186 84.692 59.9826 84.856 59.6066 84.976C59.2306 85.088 58.8626 85.144 58.5026 85.144ZM64.5959 85V77.176H67.2839C67.8599 77.176 68.3799 77.256 68.8439 77.416C69.3159 77.568 69.6919 77.828 69.9719 78.196C70.2519 78.564 70.3919 79.064 70.3919 79.696C70.3919 80.304 70.2519 80.804 69.9719 81.196C69.6919 81.588 69.3199 81.88 68.8559 82.072C68.3919 82.256 67.8839 82.348 67.3319 82.348H66.3599V85H64.5959ZM66.3599 80.944H67.2239C67.7119 80.944 68.0719 80.836 68.3039 80.62C68.5439 80.404 68.6639 80.096 68.6639 79.696C68.6639 79.28 68.5359 78.992 68.2799 78.832C68.0239 78.664 67.6559 78.58 67.1759 78.58H66.3599V80.944ZM72.7019 85.144C72.3419 85.144 72.0259 85.064 71.7539 84.904C71.4899 84.744 71.2859 84.528 71.1419 84.256C70.9979 83.984 70.9259 83.68 70.9259 83.344C70.9259 82.704 71.1899 82.212 71.7179 81.868C72.2459 81.516 73.0979 81.28 74.2739 81.16C74.2659 80.984 74.2259 80.836 74.1539 80.716C74.0899 80.588 73.9899 80.492 73.8539 80.428C73.7179 80.356 73.5459 80.32 73.3379 80.32C73.0899 80.32 72.8379 80.364 72.5819 80.452C72.3259 80.54 72.0499 80.668 71.7539 80.836L71.1299 79.684C71.3859 79.524 71.6499 79.388 71.9219 79.276C72.1939 79.156 72.4739 79.064 72.7619 79C73.0579 78.936 73.3619 78.904 73.6739 78.904C74.1859 78.904 74.6139 79.004 74.9579 79.204C75.3099 79.396 75.5779 79.692 75.7619 80.092C75.9459 80.484 76.0379 80.988 76.0379 81.604V85H74.5979L74.4779 84.388H74.4299C74.1739 84.612 73.9059 84.796 73.6259 84.94C73.3459 85.076 73.0379 85.144 72.7019 85.144ZM73.2899 83.764C73.4899 83.764 73.6659 83.72 73.8179 83.632C73.9699 83.544 74.1219 83.424 74.2739 83.272V82.264C73.8579 82.32 73.5259 82.392 73.2779 82.48C73.0379 82.568 72.8659 82.676 72.7619 82.804C72.6659 82.924 72.6179 83.06 72.6179 83.212C72.6179 83.396 72.6779 83.536 72.7979 83.632C72.9259 83.72 73.0899 83.764 73.2899 83.764ZM80.158 85.144C79.598 85.144 79.09 85.02 78.634 84.772C78.186 84.524 77.83 84.168 77.566 83.704C77.31 83.24 77.182 82.68 77.182 82.024C77.182 81.368 77.326 80.808 77.614 80.344C77.902 79.88 78.282 79.524 78.754 79.276C79.226 79.028 79.734 78.904 80.278 78.904C80.646 78.904 80.974 78.964 81.262 79.084C81.558 79.196 81.81 79.348 82.018 79.54L81.19 80.632C81.086 80.544 80.966 80.472 80.83 80.416C80.702 80.36 80.554 80.332 80.386 80.332C80.106 80.332 79.862 80.4 79.654 80.536C79.446 80.672 79.282 80.868 79.162 81.124C79.042 81.38 78.982 81.68 78.982 82.024C78.982 82.368 79.042 82.668 79.162 82.924C79.282 83.18 79.442 83.376 79.642 83.512C79.85 83.648 80.082 83.716 80.338 83.716C80.538 83.716 80.726 83.68 80.902 83.608C81.078 83.536 81.242 83.444 81.394 83.332L82.09 84.412C81.842 84.636 81.55 84.816 81.214 84.952C80.878 85.08 80.526 85.144 80.158 85.144ZM83.1433 85V76.588H84.8833V81.388H84.9313L86.7793 79.048H88.7113L86.6473 81.52L88.8673 85H86.9593L85.6153 82.684L84.8833 83.512V85H83.1433ZM91.1003 85.144C90.7403 85.144 90.4243 85.064 90.1523 84.904C89.8883 84.744 89.6843 84.528 89.5403 84.256C89.3963 83.984 89.3243 83.68 89.3243 83.344C89.3243 82.704 89.5883 82.212 90.1163 81.868C90.6443 81.516 91.4963 81.28 92.6723 81.16C92.6643 80.984 92.6243 80.836 92.5523 80.716C92.4883 80.588 92.3883 80.492 92.2523 80.428C92.1163 80.356 91.9443 80.32 91.7363 80.32C91.4883 80.32 91.2363 80.364 90.9803 80.452C90.7243 80.54 90.4483 80.668 90.1523 80.836L89.5283 79.684C89.7843 79.524 90.0483 79.388 90.3203 79.276C90.5923 79.156 90.8723 79.064 91.1603 79C91.4563 78.936 91.7603 78.904 92.0723 78.904C92.5843 78.904 93.0123 79.004 93.3563 79.204C93.7083 79.396 93.9763 79.692 94.1603 80.092C94.3443 80.484 94.4363 80.988 94.4363 81.604V85H92.9963L92.8763 84.388H92.8283C92.5723 84.612 92.3043 84.796 92.0243 84.94C91.7443 85.076 91.4363 85.144 91.1003 85.144ZM91.6883 83.764C91.8883 83.764 92.0643 83.72 92.2163 83.632C92.3683 83.544 92.5203 83.424 92.6723 83.272V82.264C92.2563 82.32 91.9243 82.392 91.6763 82.48C91.4363 82.568 91.2643 82.676 91.1603 82.804C91.0643 82.924 91.0163 83.06 91.0163 83.212C91.0163 83.396 91.0763 83.536 91.1963 83.632C91.3243 83.72 91.4883 83.764 91.6883 83.764ZM98.0524 87.532C97.5884 87.532 97.1644 87.476 96.7804 87.364C96.4044 87.26 96.1044 87.096 95.8804 86.872C95.6644 86.656 95.5564 86.372 95.5564 86.02C95.5564 85.772 95.6284 85.548 95.7724 85.348C95.9244 85.148 96.1364 84.972 96.4084 84.82V84.772C96.2564 84.668 96.1244 84.536 96.0124 84.376C95.9084 84.208 95.8564 84.004 95.8564 83.764C95.8564 83.548 95.9204 83.344 96.0484 83.152C96.1764 82.952 96.3364 82.784 96.5284 82.648V82.6C96.3124 82.456 96.1244 82.248 95.9644 81.976C95.8044 81.704 95.7244 81.396 95.7244 81.052C95.7244 80.58 95.8404 80.184 96.0724 79.864C96.3044 79.544 96.6084 79.304 96.9844 79.144C97.3604 78.984 97.7604 78.904 98.1844 78.904C98.3524 78.904 98.5124 78.916 98.6644 78.94C98.8244 78.964 98.9724 79 99.1084 79.048H101.28V80.332H100.284V80.38C100.364 80.484 100.424 80.6 100.464 80.728C100.504 80.848 100.524 80.984 100.524 81.136C100.524 81.584 100.42 81.956 100.212 82.252C100.004 82.54 99.7204 82.756 99.3604 82.9C99.0084 83.044 98.6164 83.116 98.1844 83.116C98.0804 83.116 97.9684 83.108 97.8484 83.092C97.7284 83.068 97.6004 83.036 97.4644 82.996C97.3924 83.06 97.3364 83.124 97.2964 83.188C97.2644 83.252 97.2484 83.336 97.2484 83.44C97.2484 83.584 97.3164 83.696 97.4524 83.776C97.5884 83.848 97.8204 83.884 98.1484 83.884H99.1084C99.8444 83.884 100.404 84.004 100.788 84.244C101.18 84.476 101.376 84.86 101.376 85.396C101.376 85.804 101.24 86.168 100.968 86.488C100.696 86.816 100.312 87.072 99.8164 87.256C99.3204 87.44 98.7324 87.532 98.0524 87.532ZM98.1844 82.048C98.3444 82.048 98.4844 82.012 98.6044 81.94C98.7244 81.86 98.8204 81.748 98.8924 81.604C98.9644 81.46 99.0004 81.276 99.0004 81.052C99.0004 80.732 98.9204 80.492 98.7604 80.332C98.6084 80.172 98.4164 80.092 98.1844 80.092C97.9524 80.092 97.7564 80.172 97.5964 80.332C97.4444 80.492 97.3684 80.732 97.3684 81.052C97.3684 81.276 97.4044 81.46 97.4764 81.604C97.5564 81.748 97.6564 81.86 97.7764 81.94C97.8964 82.012 98.0324 82.048 98.1844 82.048ZM98.3284 86.428C98.5924 86.428 98.8244 86.396 99.0244 86.332C99.2324 86.268 99.3964 86.18 99.5164 86.068C99.6364 85.956 99.6964 85.832 99.6964 85.696C99.6964 85.504 99.6164 85.376 99.4564 85.312C99.2964 85.256 99.0724 85.228 98.7844 85.228H98.1724C97.9644 85.228 97.7964 85.22 97.6684 85.204C97.5484 85.196 97.4364 85.18 97.3324 85.156C97.2204 85.252 97.1364 85.344 97.0804 85.432C97.0324 85.528 97.0084 85.632 97.0084 85.744C97.0084 85.968 97.1284 86.136 97.3684 86.248C97.6164 86.368 97.9364 86.428 98.3284 86.428ZM104.792 85.144C104.224 85.144 103.712 85.02 103.256 84.772C102.8 84.524 102.44 84.168 102.176 83.704C101.912 83.24 101.78 82.68 101.78 82.024C101.78 81.376 101.912 80.82 102.176 80.356C102.448 79.892 102.8 79.536 103.232 79.288C103.664 79.032 104.116 78.904 104.588 78.904C105.156 78.904 105.628 79.032 106.004 79.288C106.38 79.536 106.66 79.876 106.844 80.308C107.028 80.74 107.12 81.224 107.12 81.76C107.12 81.912 107.112 82.064 107.096 82.216C107.08 82.36 107.064 82.476 107.048 82.564H103.148L103.124 81.34H105.608C105.608 81.028 105.532 80.772 105.38 80.572C105.228 80.364 104.976 80.26 104.624 80.26C104.432 80.26 104.244 80.312 104.06 80.416C103.876 80.52 103.724 80.7 103.604 80.956C103.484 81.212 103.428 81.568 103.436 82.024C103.444 82.472 103.524 82.824 103.676 83.08C103.836 83.336 104.036 83.52 104.276 83.632C104.516 83.736 104.768 83.788 105.032 83.788C105.264 83.788 105.484 83.756 105.692 83.692C105.908 83.62 106.12 83.524 106.328 83.404L106.904 84.484C106.608 84.692 106.272 84.856 105.896 84.976C105.52 85.088 105.152 85.144 104.792 85.144Z" fill="white"/><path d="M19.924 147V139.176H22.612C23.188 139.176 23.708 139.256 24.172 139.416C24.644 139.568 25.02 139.828 25.3 140.196C25.58 140.564 25.72 141.064 25.72 141.696C25.72 142.304 25.58 142.804 25.3 143.196C25.02 143.588 24.648 143.88 24.184 144.072C23.72 144.256 23.212 144.348 22.66 144.348H21.688V147H19.924ZM21.688 142.944H22.552C23.04 142.944 23.4 142.836 23.632 142.62C23.872 142.404 23.992 142.096 23.992 141.696C23.992 141.28 23.864 140.992 23.608 140.832C23.352 140.664 22.984 140.58 22.504 140.58H21.688V142.944ZM28.5484 147.132C28.1484 147.132 27.8284 147.052 27.5884 146.892C27.3564 146.724 27.1884 146.492 27.0844 146.196C26.9804 145.892 26.9284 145.54 26.9284 145.14V138.6H28.6924V145.212C28.6924 145.404 28.7244 145.536 28.7884 145.608C28.8604 145.672 28.9364 145.704 29.0164 145.704C29.0484 145.704 29.0764 145.704 29.1004 145.704C29.1324 145.696 29.1724 145.688 29.2204 145.68L29.4364 146.988C29.3404 147.028 29.2164 147.06 29.0644 147.084C28.9204 147.116 28.7484 147.132 28.5484 147.132ZM31.862 147.144C31.502 147.144 31.186 147.064 30.914 146.904C30.65 146.744 30.446 146.528 30.302 146.256C30.158 145.984 30.086 145.68 30.086 145.344C30.086 144.704 30.35 144.212 30.878 143.868C31.406 143.516 32.258 143.28 33.434 143.16C33.426 142.984 33.386 142.836 33.314 142.716C33.25 142.588 33.15 142.492 33.014 142.428C32.878 142.356 32.706 142.32 32.498 142.32C32.25 142.32 31.998 142.364 31.742 142.452C31.486 142.54 31.21 142.668 30.914 142.836L30.29 141.684C30.546 141.524 30.81 141.388 31.082 141.276C31.354 141.156 31.634 141.064 31.922 141C32.218 140.936 32.522 140.904 32.834 140.904C33.346 140.904 33.774 141.004 34.118 141.204C34.47 141.396 34.738 141.692 34.922 142.092C35.106 142.484 35.198 142.988 35.198 143.604V147H33.758L33.638 146.388H33.59C33.334 146.612 33.066 146.796 32.786 146.94C32.506 147.076 32.198 147.144 31.862 147.144ZM32.45 145.764C32.65 145.764 32.826 145.72 32.978 145.632C33.13 145.544 33.282 145.424 33.434 145.272V144.264C33.018 144.32 32.686 144.392 32.438 144.48C32.198 144.568 32.026 144.676 31.922 144.804C31.826 144.924 31.778 145.06 31.778 145.212C31.778 145.396 31.838 145.536 31.958 145.632C32.086 145.72 32.25 145.764 32.45 145.764ZM39.3182 147.144C38.7582 147.144 38.2502 147.02 37.7942 146.772C37.3462 146.524 36.9902 146.168 36.7262 145.704C36.4702 145.24 36.3422 144.68 36.3422 144.024C36.3422 143.368 36.4862 142.808 36.7742 142.344C37.0622 141.88 37.4422 141.524 37.9142 141.276C38.3862 141.028 38.8942 140.904 39.4382 140.904C39.8062 140.904 40.1342 140.964 40.4222 141.084C40.7182 141.196 40.9702 141.348 41.1782 141.54L40.3502 142.632C40.2462 142.544 40.1262 142.472 39.9902 142.416C39.8622 142.36 39.7142 142.332 39.5462 142.332C39.2662 142.332 39.0222 142.4 38.8142 142.536C38.6062 142.672 38.4422 142.868 38.3222 143.124C38.2022 143.38 38.1422 143.68 38.1422 144.024C38.1422 144.368 38.2022 144.668 38.3222 144.924C38.4422 145.18 38.6022 145.376 38.8022 145.512C39.0102 145.648 39.2422 145.716 39.4982 145.716C39.6982 145.716 39.8862 145.68 40.0622 145.608C40.2382 145.536 40.4022 145.444 40.5542 145.332L41.2502 146.412C41.0022 146.636 40.7102 146.816 40.3742 146.952C40.0382 147.08 39.6862 147.144 39.3182 147.144ZM44.6393 147.144C44.0713 147.144 43.5593 147.02 43.1033 146.772C42.6473 146.524 42.2873 146.168 42.0233 145.704C41.7593 145.24 41.6273 144.68 41.6273 144.024C41.6273 143.376 41.7593 142.82 42.0233 142.356C42.2953 141.892 42.6473 141.536 43.0793 141.288C43.5113 141.032 43.9633 140.904 44.4353 140.904C45.0033 140.904 45.4753 141.032 45.8513 141.288C46.2273 141.536 46.5073 141.876 46.6913 142.308C46.8753 142.74 46.9673 143.224 46.9673 143.76C46.9673 143.912 46.9593 144.064 46.9433 144.216C46.9273 144.36 46.9113 144.476 46.8953 144.564H42.9953L42.9713 143.34H45.4553C45.4553 143.028 45.3793 142.772 45.2273 142.572C45.0753 142.364 44.8233 142.26 44.4713 142.26C44.2793 142.26 44.0913 142.312 43.9073 142.416C43.7233 142.52 43.5713 142.7 43.4513 142.956C43.3313 143.212 43.2753 143.568 43.2833 144.024C43.2913 144.472 43.3713 144.824 43.5233 145.08C43.6833 145.336 43.8833 145.52 44.1233 145.632C44.3633 145.736 44.6153 145.788 44.8793 145.788C45.1113 145.788 45.3313 145.756 45.5393 145.692C45.7553 145.62 45.9673 145.524 46.1753 145.404L46.7513 146.484C46.4553 146.692 46.1193 146.856 45.7433 146.976C45.3673 147.088 44.9993 147.144 44.6393 147.144ZM48.1863 147V141.048H49.6263L49.7463 141.816H49.7943C50.0343 141.568 50.2943 141.356 50.5742 141.18C50.8623 140.996 51.2023 140.904 51.5943 140.904C52.0183 140.904 52.3623 140.992 52.6263 141.168C52.8903 141.336 53.0943 141.58 53.2383 141.9C53.5023 141.628 53.7823 141.396 54.0783 141.204C54.3743 141.004 54.7183 140.904 55.1103 140.904C55.7583 140.904 56.2303 141.12 56.5263 141.552C56.8223 141.976 56.9703 142.56 56.9703 143.304V147H55.2063V143.532C55.2063 143.1 55.1463 142.804 55.0263 142.644C54.9143 142.484 54.7303 142.404 54.4743 142.404C54.3223 142.404 54.1623 142.452 53.9943 142.548C53.8263 142.636 53.6463 142.78 53.4543 142.98V147H51.6903V143.532C51.6903 143.1 51.6303 142.804 51.5103 142.644C51.3983 142.484 51.2143 142.404 50.9583 142.404C50.6543 142.404 50.3183 142.596 49.9503 142.98V147H48.1863ZM61.1393 147.144C60.5713 147.144 60.0593 147.02 59.6033 146.772C59.1473 146.524 58.7873 146.168 58.5233 145.704C58.2593 145.24 58.1273 144.68 58.1273 144.024C58.1273 143.376 58.2593 142.82 58.5233 142.356C58.7953 141.892 59.1473 141.536 59.5793 141.288C60.0113 141.032 60.4633 140.904 60.9353 140.904C61.5033 140.904 61.9753 141.032 62.3513 141.288C62.7273 141.536 63.0073 141.876 63.1913 142.308C63.3753 142.74 63.4673 143.224 63.4673 143.76C63.4673 143.912 63.4593 144.064 63.4433 144.216C63.4273 144.36 63.4113 144.476 63.3953 144.564H59.4953L59.4713 143.34H61.9553C61.9553 143.028 61.8793 142.772 61.7273 142.572C61.5753 142.364 61.3233 142.26 60.9713 142.26C60.7793 142.26 60.5913 142.312 60.4073 142.416C60.2233 142.52 60.0713 142.7 59.9513 142.956C59.8313 143.212 59.7753 143.568 59.7833 144.024C59.7913 144.472 59.8713 144.824 60.0233 145.08C60.1833 145.336 60.3833 145.52 60.6233 145.632C60.8633 145.736 61.1153 145.788 61.3793 145.788C61.6113 145.788 61.8313 145.756 62.0393 145.692C62.2553 145.62 62.4673 145.524 62.6753 145.404L63.2513 146.484C62.9553 146.692 62.6193 146.856 62.2433 146.976C61.8673 147.088 61.4993 147.144 61.1393 147.144ZM64.6863 147V141.048H66.1263L66.2463 141.804H66.2943C66.5423 141.556 66.8223 141.344 67.1343 141.168C67.4463 140.992 67.8023 140.904 68.2023 140.904C68.8583 140.904 69.3303 141.12 69.6183 141.552C69.9063 141.976 70.0503 142.56 70.0503 143.304V147H68.2863V143.532C68.2863 143.1 68.2263 142.804 68.1063 142.644C67.9943 142.484 67.8103 142.404 67.5543 142.404C67.3303 142.404 67.1383 142.456 66.9783 142.56C66.8183 142.656 66.6423 142.796 66.4503 142.98V147H64.6863ZM73.8454 147.132C73.1094 147.132 72.5814 146.92 72.2614 146.496C71.9414 146.064 71.7814 145.508 71.7814 144.828V142.428H70.9774V141.12L71.8894 141.048L72.0934 139.224H73.5574V141.048H74.9854V142.428H73.5574V144.804C73.5574 145.14 73.6254 145.384 73.7614 145.536C73.9054 145.68 74.0934 145.752 74.3254 145.752C74.4214 145.752 74.5174 145.744 74.6134 145.728C74.7094 145.712 74.8014 145.688 74.8894 145.656L75.1774 146.892C75.0254 146.956 74.8334 147.012 74.6014 147.06C74.3774 147.108 74.1254 147.132 73.8454 147.132ZM78.5495 149.208V141.048H79.9895L80.1095 141.636H80.1575C80.3895 141.42 80.6535 141.244 80.9495 141.108C81.2455 140.972 81.5455 140.904 81.8495 140.904C82.3295 140.904 82.7415 141.028 83.0855 141.276C83.4375 141.524 83.7055 141.876 83.8895 142.332C84.0815 142.788 84.1775 143.32 84.1775 143.928C84.1775 144.608 84.0575 145.188 83.8175 145.668C83.5775 146.148 83.2655 146.516 82.8815 146.772C82.5055 147.02 82.1015 147.144 81.6695 147.144C81.4215 147.144 81.1735 147.092 80.9255 146.988C80.6855 146.876 80.4615 146.72 80.2535 146.52L80.3135 147.468V149.208H78.5495ZM81.2615 145.704C81.4615 145.704 81.6455 145.644 81.8135 145.524C81.9895 145.404 82.1255 145.216 82.2215 144.96C82.3175 144.696 82.3655 144.36 82.3655 143.952C82.3655 143.592 82.3255 143.296 82.2455 143.064C82.1735 142.824 82.0615 142.644 81.9095 142.524C81.7575 142.404 81.5655 142.344 81.3335 142.344C81.1575 142.344 80.9855 142.388 80.8175 142.476C80.6575 142.556 80.4895 142.692 80.3135 142.884V145.32C80.4735 145.456 80.6335 145.556 80.7935 145.62C80.9615 145.676 81.1175 145.704 81.2615 145.704ZM88.0924 147.144C87.5244 147.144 87.0124 147.02 86.5564 146.772C86.1004 146.524 85.7404 146.168 85.4764 145.704C85.2124 145.24 85.0804 144.68 85.0804 144.024C85.0804 143.376 85.2124 142.82 85.4764 142.356C85.7484 141.892 86.1004 141.536 86.5324 141.288C86.9644 141.032 87.4164 140.904 87.8884 140.904C88.4564 140.904 88.9284 141.032 89.3044 141.288C89.6804 141.536 89.9604 141.876 90.1444 142.308C90.3284 142.74 90.4204 143.224 90.4204 143.76C90.4204 143.912 90.4124 144.064 90.3964 144.216C90.3804 144.36 90.3644 144.476 90.3484 144.564H86.4484L86.4244 143.34H88.9084C88.9084 143.028 88.8324 142.772 88.6804 142.572C88.5284 142.364 88.2764 142.26 87.9244 142.26C87.7324 142.26 87.5444 142.312 87.3604 142.416C87.1764 142.52 87.0244 142.7 86.9044 142.956C86.7844 143.212 86.7284 143.568 86.7364 144.024C86.7444 144.472 86.8244 144.824 86.9764 145.08C87.1364 145.336 87.3364 145.52 87.5764 145.632C87.8164 145.736 88.0684 145.788 88.3324 145.788C88.5644 145.788 88.7844 145.756 88.9924 145.692C89.2084 145.62 89.4204 145.524 89.6284 145.404L90.2044 146.484C89.9084 146.692 89.5724 146.856 89.1964 146.976C88.8204 147.088 88.4524 147.144 88.0924 147.144ZM91.6394 147V141.048H93.0794L93.1994 142.092H93.2474C93.4634 141.692 93.7194 141.396 94.0154 141.204C94.3194 141.004 94.6274 140.904 94.9394 140.904C95.1074 140.904 95.2474 140.916 95.3594 140.94C95.4714 140.956 95.5674 140.984 95.6474 141.024L95.3114 142.524C95.2154 142.5 95.1234 142.484 95.0354 142.476C94.9474 142.46 94.8394 142.452 94.7114 142.452C94.4874 142.452 94.2514 142.532 94.0034 142.692C93.7634 142.852 93.5634 143.136 93.4034 143.544V147H91.6394ZM98.9314 147.144C98.3714 147.144 97.8634 147.02 97.4074 146.772C96.9594 146.524 96.6034 146.168 96.3394 145.704C96.0834 145.24 95.9554 144.68 95.9554 144.024C95.9554 143.368 96.0994 142.808 96.3874 142.344C96.6754 141.88 97.0554 141.524 97.5274 141.276C97.9994 141.028 98.5074 140.904 99.0514 140.904C99.4194 140.904 99.7474 140.964 100.035 141.084C100.331 141.196 100.583 141.348 100.791 141.54L99.9634 142.632C99.8594 142.544 99.7394 142.472 99.6034 142.416C99.4754 142.36 99.3274 142.332 99.1594 142.332C98.8794 142.332 98.6354 142.4 98.4274 142.536C98.2194 142.672 98.0554 142.868 97.9354 143.124C97.8154 143.38 97.7554 143.68 97.7554 144.024C97.7554 144.368 97.8154 144.668 97.9354 144.924C98.0554 145.18 98.2154 145.376 98.4154 145.512C98.6234 145.648 98.8554 145.716 99.1114 145.716C99.3114 145.716 99.4994 145.68 99.6754 145.608C99.8514 145.536 100.015 145.444 100.167 145.332L100.863 146.412C100.615 146.636 100.323 146.816 99.9874 146.952C99.6514 147.08 99.2994 147.144 98.9314 147.144ZM104.253 147.144C103.685 147.144 103.173 147.02 102.717 146.772C102.261 146.524 101.901 146.168 101.637 145.704C101.373 145.24 101.241 144.68 101.241 144.024C101.241 143.376 101.373 142.82 101.637 142.356C101.909 141.892 102.261 141.536 102.693 141.288C103.125 141.032 103.577 140.904 104.049 140.904C104.617 140.904 105.089 141.032 105.465 141.288C105.841 141.536 106.121 141.876 106.305 142.308C106.489 142.74 106.581 143.224 106.581 143.76C106.581 143.912 106.573 144.064 106.557 144.216C106.541 144.36 106.525 144.476 106.509 144.564H102.609L102.585 143.34H105.069C105.069 143.028 104.993 142.772 104.841 142.572C104.689 142.364 104.437 142.26 104.085 142.26C103.893 142.26 103.705 142.312 103.521 142.416C103.337 142.52 103.185 142.7 103.065 142.956C102.945 143.212 102.889 143.568 102.897 144.024C102.905 144.472 102.985 144.824 103.137 145.08C103.297 145.336 103.497 145.52 103.737 145.632C103.977 145.736 104.229 145.788 104.493 145.788C104.725 145.788 104.945 145.756 105.153 145.692C105.369 145.62 105.581 145.524 105.789 145.404L106.365 146.484C106.069 146.692 105.733 146.856 105.357 146.976C104.981 147.088 104.613 147.144 104.253 147.144ZM107.8 147V141.048H109.24L109.36 141.804H109.408C109.656 141.556 109.936 141.344 110.248 141.168C110.56 140.992 110.916 140.904 111.316 140.904C111.972 140.904 112.444 141.12 112.732 141.552C113.02 141.976 113.164 142.56 113.164 143.304V147H111.4V143.532C111.4 143.1 111.34 142.804 111.22 142.644C111.108 142.484 110.924 142.404 110.668 142.404C110.444 142.404 110.252 142.456 110.092 142.56C109.932 142.656 109.756 142.796 109.564 142.98V147H107.8ZM116.959 147.132C116.223 147.132 115.695 146.92 115.375 146.496C115.055 146.064 114.895 145.508 114.895 144.828V142.428H114.091V141.12L115.003 141.048L115.207 139.224H116.671V141.048H118.099V142.428H116.671V144.804C116.671 145.14 116.739 145.384 116.875 145.536C117.019 145.68 117.207 145.752 117.439 145.752C117.535 145.752 117.631 145.744 117.727 145.728C117.823 145.712 117.915 145.688 118.003 145.656L118.291 146.892C118.139 146.956 117.947 147.012 117.715 147.06C117.491 147.108 117.239 147.132 116.959 147.132ZM120.514 147.144C120.154 147.144 119.838 147.064 119.566 146.904C119.302 146.744 119.098 146.528 118.954 146.256C118.81 145.984 118.738 145.68 118.738 145.344C118.738 144.704 119.002 144.212 119.53 143.868C120.058 143.516 120.91 143.28 122.086 143.16C122.078 142.984 122.038 142.836 121.966 142.716C121.902 142.588 121.802 142.492 121.666 142.428C121.53 142.356 121.358 142.32 121.15 142.32C120.902 142.32 120.65 142.364 120.394 142.452C120.138 142.54 119.862 142.668 119.566 142.836L118.942 141.684C119.198 141.524 119.462 141.388 119.734 141.276C120.006 141.156 120.286 141.064 120.574 141C120.87 140.936 121.174 140.904 121.486 140.904C121.998 140.904 122.426 141.004 122.77 141.204C123.122 141.396 123.39 141.692 123.574 142.092C123.758 142.484 123.85 142.988 123.85 143.604V147H122.41L122.29 146.388H122.242C121.986 146.612 121.718 146.796 121.438 146.94C121.158 147.076 120.85 147.144 120.514 147.144ZM121.102 145.764C121.302 145.764 121.478 145.72 121.63 145.632C121.782 145.544 121.934 145.424 122.086 145.272V144.264C121.67 144.32 121.338 144.392 121.09 144.48C120.85 144.568 120.678 144.676 120.574 144.804C120.478 144.924 120.43 145.06 120.43 145.212C120.43 145.396 120.49 145.536 120.61 145.632C120.738 145.72 120.902 145.764 121.102 145.764ZM127.467 149.532C127.003 149.532 126.579 149.476 126.195 149.364C125.819 149.26 125.519 149.096 125.295 148.872C125.079 148.656 124.971 148.372 124.971 148.02C124.971 147.772 125.043 147.548 125.187 147.348C125.339 147.148 125.551 146.972 125.823 146.82V146.772C125.671 146.668 125.539 146.536 125.427 146.376C125.323 146.208 125.271 146.004 125.271 145.764C125.271 145.548 125.335 145.344 125.463 145.152C125.591 144.952 125.751 144.784 125.943 144.648V144.6C125.727 144.456 125.539 144.248 125.379 143.976C125.219 143.704 125.139 143.396 125.139 143.052C125.139 142.58 125.255 142.184 125.487 141.864C125.719 141.544 126.023 141.304 126.399 141.144C126.775 140.984 127.175 140.904 127.599 140.904C127.767 140.904 127.927 140.916 128.079 140.94C128.239 140.964 128.387 141 128.523 141.048H130.695V142.332H129.699V142.38C129.779 142.484 129.839 142.6 129.879 142.728C129.919 142.848 129.939 142.984 129.939 143.136C129.939 143.584 129.835 143.956 129.627 144.252C129.419 144.54 129.135 144.756 128.775 144.9C128.423 145.044 128.031 145.116 127.599 145.116C127.495 145.116 127.383 145.108 127.263 145.092C127.143 145.068 127.015 145.036 126.879 144.996C126.807 145.06 126.751 145.124 126.711 145.188C126.679 145.252 126.663 145.336 126.663 145.44C126.663 145.584 126.731 145.696 126.867 145.776C127.003 145.848 127.235 145.884 127.562 145.884H128.523C129.259 145.884 129.819 146.004 130.203 146.244C130.595 146.476 130.791 146.86 130.791 147.396C130.791 147.804 130.655 148.168 130.383 148.488C130.111 148.816 129.727 149.072 129.231 149.256C128.735 149.44 128.147 149.532 127.467 149.532ZM127.599 144.048C127.759 144.048 127.899 144.012 128.019 143.94C128.139 143.86 128.235 143.748 128.307 143.604C128.379 143.46 128.415 143.276 128.415 143.052C128.415 142.732 128.335 142.492 128.175 142.332C128.023 142.172 127.831 142.092 127.599 142.092C127.367 142.092 127.171 142.172 127.011 142.332C126.859 142.492 126.783 142.732 126.783 143.052C126.783 143.276 126.819 143.46 126.891 143.604C126.971 143.748 127.071 143.86 127.191 143.94C127.311 144.012 127.447 144.048 127.599 144.048ZM127.743 148.428C128.007 148.428 128.239 148.396 128.439 148.332C128.647 148.268 128.811 148.18 128.931 148.068C129.051 147.956 129.111 147.832 129.111 147.696C129.111 147.504 129.031 147.376 128.871 147.312C128.711 147.256 128.487 147.228 128.199 147.228H127.587C127.379 147.228 127.211 147.22 127.083 147.204C126.963 147.196 126.851 147.18 126.747 147.156C126.635 147.252 126.551 147.344 126.495 147.432C126.447 147.528 126.423 147.632 126.423 147.744C126.423 147.968 126.543 148.136 126.783 148.248C127.031 148.368 127.351 148.428 127.743 148.428ZM134.206 147.144C133.638 147.144 133.126 147.02 132.67 146.772C132.214 146.524 131.854 146.168 131.59 145.704C131.326 145.24 131.194 144.68 131.194 144.024C131.194 143.376 131.326 142.82 131.59 142.356C131.862 141.892 132.214 141.536 132.646 141.288C133.078 141.032 133.53 140.904 134.002 140.904C134.57 140.904 135.042 141.032 135.418 141.288C135.794 141.536 136.074 141.876 136.258 142.308C136.442 142.74 136.534 143.224 136.534 143.76C136.534 143.912 136.526 144.064 136.51 144.216C136.494 144.36 136.478 144.476 136.462 144.564H132.562L132.538 143.34H135.022C135.022 143.028 134.946 142.772 134.794 142.572C134.642 142.364 134.39 142.26 134.038 142.26C133.846 142.26 133.658 142.312 133.474 142.416C133.29 142.52 133.138 142.7 133.018 142.956C132.898 143.212 132.842 143.568 132.85 144.024C132.858 144.472 132.938 144.824 133.09 145.08C133.25 145.336 133.45 145.52 133.69 145.632C133.93 145.736 134.182 145.788 134.446 145.788C134.678 145.788 134.898 145.756 135.106 145.692C135.322 145.62 135.534 145.524 135.742 145.404L136.318 146.484C136.022 146.692 135.686 146.856 135.31 146.976C134.934 147.088 134.566 147.144 134.206 147.144Z" fill="white"/></svg>